# xmcd
#
# Track frame offsets:
#	150
#	21687
#	37403
#	58746
#	79092
#	98356
#	115990
#	134753
#	149470
#	165868
#	180074
#	197862
#	213554
#	240029
#	255459
#	278586
#	292327
#
# Disc length: 4187 seconds
#
# Revision: 1
# Processed by: cddbd v1.5.2PL0 Copyright (c) Steve Scherf et al.
# Submitted via: audiograbber 1.83.01
#
DISCID=f8105911
DTITLE=Hootin' the Blues - Tree Mountain Hop
DYEAR=2008
DGENRE=Blues
TTITLE0=Lonesome Train
TTITLE1=Mind your own Business
TTITLE2=You Can't judge a book by looking at the Cover
TTITLE3=Suitecase Blues
TTITLE4=Willie Mae
TTITLE5=That's why i keep Drinkin'
TTITLE6=I Saw the light
TTITLE7=Shimmy like my sister Kate
TTITLE8=Ditty wah Ditty
TTITLE9=My baby left me
TTITLE10=You Are my Sunshine
TTITLE11=The biggest kick
TTITLE12=Mistery Train
TTITLE13=Colored Bird
TTITLE14=Frankie and Johnny
TTITLE15=The joint is jumping
TTITLE16=Bring It On Home to Me
EXTD=
EXTT0=
EXTT1=
EXTT2=
EXTT3=
EXTT4=
EXTT5=
EXTT6=
EXTT7=
EXTT8=
EXTT9=
EXTT10=
EXTT11=
EXTT12=
EXTT13=
EXTT14=
EXTT15=
EXTT16=
PLAYORDER=
